<svg width="77" height="42" viewBox="0 0 77 42" fill="none" xmlns="http://www.w3.org/2000/svg">
<path fill-rule="evenodd" clip-rule="evenodd" d="M34.6504 12.7319C34.5664 12.7268 34.5052 12.7198 34.4441 12.7198C32.7393 12.7193 31.0349 12.7176 29.3301 12.7207C28.9125 12.7218 28.4964 12.7528 28.0881 12.8476C27.1925 13.0557 26.5205 13.5411 26.1609 14.408C26.0557 14.662 25.9518 14.9168 25.8572 15.1749C25.5221 16.09 25.2918 17.0359 25.0479 17.9774C24.2698 20.9798 23.4903 23.9817 22.7157 26.985C22.1469 29.1896 21.5792 31.3944 21.0207 33.6017C20.7062 34.8449 20.404 36.092 20.1107 37.3404C19.9801 37.896 19.8772 38.4586 19.9079 39.0365C19.9433 39.7048 20.3155 40.2137 20.9482 40.4353C21.0414 40.4678 21.1372 40.4934 21.2331 40.5179C21.7022 40.6369 22.1831 40.6748 22.6631 40.6777C24.1837 40.6876 25.7045 40.6813 27.2252 40.6799C27.4063 40.6799 27.4093 40.6777 27.4552 40.5041C27.5816 40.0272 27.7062 39.5497 27.8298 39.0722C28.6547 35.8854 29.4784 32.6983 30.3042 29.5118C31.0044 26.8099 31.7078 24.1086 32.4089 21.4067C33.0889 18.7866 33.7677 16.1663 34.4463 13.546C34.5149 13.2816 34.5794 13.0161 34.6504 12.7319ZM33.3891 1.09811C32.857 1.09561 32.3311 1.14392 31.8124 1.26501C30.7425 1.51457 29.8471 2.06685 29.063 2.82065C28.5831 3.28225 28.19 3.79873 27.956 4.42762C27.7391 5.01083 27.6706 5.60537 27.8302 6.21294C28.0565 7.07401 28.6122 7.64682 29.4186 7.99431C30.0046 8.24715 30.6253 8.34244 31.2561 8.36956C32.0565 8.40404 32.8513 8.34073 33.6345 8.16252C35.1615 7.81464 36.3715 7.01385 37.1839 5.65999C37.6727 4.84473 37.7975 3.98353 37.4169 3.09047C37.1441 2.45026 36.6756 1.98051 36.0562 1.66277C35.219 1.23303 34.3179 1.09732 33.3891 1.09811Z" fill="#D3D3D3"/>
<path fill-rule="evenodd" clip-rule="evenodd" d="M49.1042 0C49.1719 0.0142152 49.2389 0.0338268 49.3076 0.042119C49.6801 0.0866071 50.0519 0.135307 50.3952 0.300098C51.0493 0.61441 51.4075 1.12273 51.3851 1.85968C51.3776 2.09713 51.3463 2.33918 51.2866 2.56886C50.5749 5.3116 49.8556 8.05222 49.1391 10.7934C48.9911 11.3595 48.8436 11.9253 48.6971 12.4917C48.6801 12.5571 48.6707 12.6244 48.6526 12.7193C48.7556 12.7193 48.8313 12.7193 48.9074 12.7193C49.8976 12.7193 50.8877 12.7195 51.8779 12.7193C52.1709 12.7191 52.4559 12.7645 52.7246 12.8851C53.2169 13.1062 53.4639 13.3729 53.3072 14.0575C53.1328 14.8198 52.9201 15.5735 52.7242 16.3311C52.6308 16.6927 52.54 17.055 52.4429 17.4158C52.41 17.5379 52.3673 17.6582 52.3204 17.7759C52.07 18.3998 51.5922 18.7482 50.9459 18.8726C50.7326 18.9138 50.5105 18.9238 50.2927 18.9247C49.2741 18.93 48.2555 18.9272 47.2371 18.9273C47.1804 18.9273 47.1236 18.9322 47.0675 18.9264C46.9459 18.9138 46.888 18.9709 46.8599 19.0846C46.7903 19.365 46.7142 19.6435 46.6412 19.9229C45.9915 22.4124 45.3423 24.9023 44.6926 27.3914C43.8981 30.4331 43.1051 33.4754 42.3054 36.5156C42.1551 37.0873 42.0019 37.6607 41.8044 38.2174C41.5677 38.8851 41.1804 39.466 40.6284 39.9248C40.031 40.4213 39.3445 40.6822 38.5633 40.6824C36.7807 40.6824 34.9987 40.6824 33.2163 40.6824C33.1328 40.6824 33.0493 40.6824 32.9339 40.6824C32.957 40.5603 32.9687 40.4655 32.993 40.3739C33.295 39.2285 33.5996 38.0844 33.9017 36.9395C34.7093 33.8798 35.516 30.8192 36.3233 27.7589C37.0746 24.9102 37.8259 22.0615 38.5765 19.2126C38.5977 19.1318 38.6125 19.0494 38.6363 18.9387C38.5408 18.9322 38.4604 18.9222 38.3804 18.9222C37.3335 18.921 36.2869 18.9213 35.24 18.9213C35.1642 18.9213 35.0883 18.9213 34.9842 18.9213C35.5007 16.8425 36.01 14.7924 36.5247 12.7214C37.7475 12.7214 38.9607 12.7214 40.1876 12.7214C40.2667 12.4314 40.3419 12.1611 40.4143 11.8899C41.1292 9.21365 41.8437 6.53726 42.5579 3.86073C42.6558 3.49311 42.7601 3.12668 42.8469 2.75655C42.8893 2.57663 42.9776 2.43342 43.102 2.30364C43.5168 1.87048 43.9978 1.52207 44.5273 1.2487C45.5563 0.717734 46.6462 0.354852 47.7838 0.136755C48.0123 0.092925 48.2456 0.0716022 48.4759 0.0373806C48.5166 0.0314576 48.5553 0.0126357 48.5947 0C48.7645 0 48.9344 0 49.1042 0Z" fill="#D3D3D3"/>
<path fill-rule="evenodd" clip-rule="evenodd" d="M0 29.7742C0.0304677 29.5521 0.0774224 29.3311 0.0883696 29.1083C0.159197 27.6485 0.4371 26.2271 0.887785 24.8389C1.76858 22.125 3.11074 19.6586 4.91427 17.4465C6.07324 16.0252 7.40564 14.7888 8.95646 13.798C10.1542 13.0329 11.448 12.5035 12.8536 12.2627C13.5665 12.1407 14.2859 12.0812 15.0078 12.1357C16.0673 12.2154 17.0796 12.4931 18.0488 12.925C19.5129 13.5769 20.7688 14.5024 21.7798 15.752C21.9973 16.0207 22.1202 16.306 22.1076 16.6616C22.0774 17.5146 22.0882 18.3693 22.0452 19.2214C22.0131 19.8612 21.9461 20.5034 21.7272 21.1132C21.6543 21.316 21.5494 21.5131 21.4282 21.6918C21.2048 22.0212 20.8364 22.1406 20.4573 22.016C19.9176 21.8386 19.4546 21.5265 19.0426 21.1446C18.5397 20.679 18.0369 20.2151 17.4829 19.8082C16.781 19.2922 15.9925 19.0366 15.1289 19.0268C14.3229 19.0176 13.5812 19.2488 12.9178 19.7123C12.2202 20.1995 11.6525 20.8155 11.1542 21.4983C10.3555 22.5927 9.79927 23.8071 9.38288 25.0892C9.0472 26.1227 8.76732 27.1707 8.58926 28.2435C8.42268 29.2486 8.32692 30.258 8.4389 31.2771C8.50103 31.8407 8.62066 32.3893 8.87719 32.9016C9.37074 33.8871 10.3907 34.4473 11.4921 34.3446C12.0181 34.2956 12.5179 34.1497 13.0063 33.9585C14.0405 33.5547 15.0337 33.0626 16.0218 32.5586C16.4617 32.3343 16.9132 32.1315 17.3656 31.9333C17.646 31.8106 17.9414 31.7381 18.2533 31.7994C18.5675 31.8614 18.7151 32.0244 18.7429 32.346C18.7693 32.6529 18.7146 32.951 18.6332 33.2441C18.4311 33.9725 18.1472 34.6718 17.8594 35.3694C17.4262 36.4192 16.9722 37.4595 16.4502 38.47C16.3566 38.651 16.229 38.7885 16.062 38.905C14.6909 39.8605 13.1899 40.5016 11.5351 40.7669C10.8358 40.8788 10.1298 40.9316 9.42231 40.8924C8.4823 40.8397 7.55046 40.7251 6.65423 40.4143C5.7096 40.0872 4.85835 39.5896 4.0679 38.9866C3.27864 38.3847 2.54755 37.7187 1.94031 36.9307C1.19602 35.9641 0.73782 34.8612 0.444354 33.6865C0.250732 32.9119 0.137962 32.1244 0.0888972 31.3269C0.0761034 31.1187 0.0305996 30.9126 0 30.7055C0 30.395 0 30.0845 0 29.7742Z" fill="#D3D3D3"/>
<path fill-rule="evenodd" clip-rule="evenodd" d="M34.6504 12.7319C34.5794 13.0161 34.5149 13.2814 34.4463 13.5459C33.7677 16.1662 33.0889 18.7865 32.4089 21.4066C31.7078 24.1085 31.0044 26.8097 30.3042 29.5117C29.4782 32.6981 28.6547 35.8852 27.8298 39.0721C27.7061 39.5496 27.5816 40.0271 27.4552 40.504C27.4093 40.6776 27.4063 40.6798 27.2252 40.6798C25.7045 40.6813 24.1837 40.6876 22.6631 40.6776C22.183 40.6748 21.7022 40.6368 21.2331 40.5178C21.1371 40.4933 21.0414 40.4676 20.9482 40.4351C20.3155 40.2136 19.9433 39.7046 19.9079 39.0364C19.8772 38.4584 19.9801 37.8959 20.1107 37.3403C20.404 36.0919 20.7062 34.8448 21.0207 33.6016C21.579 31.3943 22.1469 29.1896 22.7157 26.9848C23.4905 23.9818 24.2698 20.9797 25.0479 17.9773C25.2919 17.0358 25.5222 16.0898 25.8572 15.1748C25.9518 14.9167 26.0557 14.6619 26.161 14.4079C26.5205 13.541 27.1925 13.0556 28.0881 12.8475C28.4964 12.7527 28.9127 12.7216 29.3301 12.7206C31.0349 12.7174 32.7393 12.719 34.4441 12.7197C34.5052 12.7198 34.5664 12.7269 34.6504 12.7319Z" fill="#D3D3D3"/>
<path fill-rule="evenodd" clip-rule="evenodd" d="M33.3891 1.09811C34.3179 1.09746 35.219 1.23303 36.0562 1.66264C36.6756 1.98038 37.1441 2.45013 37.4169 3.09034C37.7977 3.9834 37.6727 4.84473 37.1839 5.65986C36.3715 7.01372 35.1615 7.81451 33.6345 8.16239C32.8513 8.3406 32.0567 8.40391 31.256 8.36943C30.6253 8.34232 30.0048 8.24715 29.4186 7.99418C28.6122 7.64656 28.0564 7.07374 27.8302 6.21281C27.6706 5.60524 27.7391 5.0107 27.956 4.42749C28.19 3.79847 28.5831 3.28198 29.063 2.82052C29.8471 2.06672 30.7424 1.51443 31.8124 1.26488C32.3311 1.14392 32.857 1.09561 33.3891 1.09811Z" fill="#D3D3D3"/>
<path fill-rule="evenodd" clip-rule="evenodd" d="M65.3293 41.268C62.579 41.4973 60.1205 40.4979 58.1596 38.2074C57.2572 37.1539 56.1733 36.2563 55.2595 35.212C54.0835 33.8672 52.8106 33.8168 51.3832 34.7101C49.99 35.5826 48.6004 36.46 47.2119 37.3391C46.0457 38.0778 45.4932 38.0194 45.3759 36.3871C45.2268 34.3201 45.8911 32.9489 47.6747 31.8522C50.5806 30.0656 53.3318 28.0176 56.3677 26.4476C59.9811 24.5779 63.5219 26.1963 64.5739 30.0952C64.6075 30.2174 64.6384 30.3392 64.676 30.4603C66.2631 35.5877 68.2172 36.4665 73.0945 34.2444C73.2671 34.166 73.4289 34.0583 73.607 33.9991C74.4565 33.7152 75.3449 32.7178 76.1912 33.6086C77.0534 34.5155 76.7887 35.7567 76.3305 36.8304C75.8673 37.9146 74.9953 38.6727 73.9439 39.1761C71.2977 40.4437 68.5632 41.394 65.3293 41.268Z" fill="#D3D3D3"/>
<path fill-rule="evenodd" clip-rule="evenodd" d="M60.871 18.0229C59.3614 17.8639 57.7353 17.7178 57.1034 15.8787C56.4728 14.043 57.4616 12.8672 58.8774 11.9338C61.4392 10.2458 64.2352 9.08416 67.2665 8.63348C70.1006 8.21124 70.8529 9.33121 69.8459 11.9714C68.2641 16.1201 66.0555 17.5262 60.871 18.0229Z" fill="#D3D3D3"/>
</svg>
