<svg width="50" height="50" xmlns="http://www.w3.org/2000/svg">

 <g>
  <title>background</title>
  <rect fill="none" id="canvas_background" height="52" width="52" y="-1" x="-1"/>
 </g>
 <g>
  <title>Layer 1</title>
  <g id="svg_1">
   <g id="svg_2">
    <path id="svg_3" fill="#c3c3c3" d="m36.47829,21.9714l-20.278,-11.541c-2.151,-1.228 -4.344,0.115 -4.344,2.53l0,24.093c0,2.046 1.332,2.979 2.57,2.979c0.583,0 1.177,-0.184 1.767,-0.543l20.369,-12.468c1.024,-0.629 1.599,-1.56 1.581,-2.555c-0.017,-0.996 -0.623,-1.906 -1.665,-2.495zm-1.281,2.823l-20.368,12.465c-0.137,0.084 -0.245,0.126 -0.319,0.147c-0.02,-0.074 -0.04,-0.188 -0.04,-0.353l0,-24.092c0,-0.248 0.045,-0.373 0.045,-0.404c0.08,0.005 0.22,0.046 0.396,0.146l20.275,11.541c0.25,0.143 0.324,0.267 0.348,0.24c-0.013,0.034 -0.098,0.161 -0.337,0.31z"/>
   </g>
   <g id="svg_4"/>
   <g id="svg_5"/>
   <g id="svg_6"/>
   <g id="svg_7"/>
   <g id="svg_8"/>
   <g id="svg_9"/>
   <g id="svg_10"/>
   <g id="svg_11"/>
   <g id="svg_12"/>
   <g id="svg_13"/>
   <g id="svg_14"/>
   <g id="svg_15"/>
   <g id="svg_16"/>
   <g id="svg_17"/>
   <g id="svg_18"/>
  </g>
 </g>
</svg>